<svg xmlns="http://www.w3.org/2000/svg" width="26.05" height="31.224" viewBox="0 0 26.05 31.224">
    <defs>
        <style>
            .prefix__cls-1{fill:#707070}
        </style>
    </defs>
    <g id="prefix__man-avatar">
        <path id="prefix__패스_13" d="M94.552 15.041a7.277 7.277 0 0 0 5.317-2.2 7.277 7.277 0 0 0 2.2-5.317 7.278 7.278 0 0 0-2.2-5.317 7.519 7.519 0 0 0-10.635 0 7.277 7.277 0 0 0-2.2 5.317 7.277 7.277 0 0 0 2.2 5.317 7.279 7.279 0 0 0 5.318 2.2zM90.529 3.5a5.689 5.689 0 0 1 8.047 0 5.437 5.437 0 0 1 1.667 4.023 5.437 5.437 0 0 1-1.667 4.023 5.688 5.688 0 0 1-8.047 0 5.436 5.436 0 0 1-1.668-4.026 5.436 5.436 0 0 1 1.668-4.02zm0 0" class="prefix__cls-1" data-name="패스 13" transform="translate(-81.724)"/>
        <path id="prefix__패스_14" d="M25.987 256.243a18.575 18.575 0 0 0-.253-1.973 15.544 15.544 0 0 0-.485-1.984 9.8 9.8 0 0 0-.816-1.85 6.974 6.974 0 0 0-1.229-1.6 5.421 5.421 0 0 0-1.766-1.11 6.1 6.1 0 0 0-2.255-.408 2.289 2.289 0 0 0-1.222.518c-.366.239-.795.515-1.273.821a7.3 7.3 0 0 1-1.648.726 6.4 6.4 0 0 1-4.03 0 7.274 7.274 0 0 1-1.646-.726c-.474-.3-.9-.579-1.274-.821a2.286 2.286 0 0 0-1.222-.518 6.1 6.1 0 0 0-2.255.409 5.417 5.417 0 0 0-1.767 1.11 6.976 6.976 0 0 0-1.229 1.6 9.817 9.817 0 0 0-.815 1.85 15.581 15.581 0 0 0-.485 1.983 18.45 18.45 0 0 0-.253 1.974c-.041.6-.062 1.217-.062 1.844a5.185 5.185 0 0 0 1.54 3.923 5.543 5.543 0 0 0 3.968 1.447h15.032a5.543 5.543 0 0 0 3.968-1.447 5.183 5.183 0 0 0 1.54-3.923c0-.629-.021-1.25-.063-1.844zm-2.739 4.441a3.732 3.732 0 0 1-2.706.943H5.508a3.732 3.732 0 0 1-2.706-.943 3.386 3.386 0 0 1-.972-2.6c0-.585.019-1.163.058-1.717a16.64 16.64 0 0 1 .229-1.777 13.742 13.742 0 0 1 .427-1.749 7.993 7.993 0 0 1 .664-1.5 5.17 5.17 0 0 1 .9-1.184 3.6 3.6 0 0 1 1.175-.731 4.209 4.209 0 0 1 1.441-.278c.064.034.178.1.363.22.376.245.81.525 1.289.831a9.066 9.066 0 0 0 2.068.924 8.226 8.226 0 0 0 5.156 0 9.075 9.075 0 0 0 2.069-.925c.49-.314.912-.585 1.288-.83.185-.12.3-.186.363-.22a4.213 4.213 0 0 1 1.441.278 3.6 3.6 0 0 1 1.175.731 5.156 5.156 0 0 1 .9 1.184 7.965 7.965 0 0 1 .664 1.5 13.71 13.71 0 0 1 .427 1.749 16.781 16.781 0 0 1 .229 1.777c.039.552.058 1.13.059 1.717a3.385 3.385 0 0 1-.972 2.6zm0 0" class="prefix__cls-1" data-name="패스 14" transform="translate(0 -232.234)"/>
    </g>
</svg>
