<svg xmlns="http://www.w3.org/2000/svg" width="30.74" height="30.02" viewBox="0 0 28.62 27.976">
    <path id="prefix__online_1_" d="M26.24 15.288v9.5a2.278 2.278 0 0 1-2.3 2.248H3.684a2.278 2.278 0 0 1-2.3-2.248v-9.5a.46.46 0 0 1 .921 0v9.5a1.367 1.367 0 0 0 1.381 1.349h20.252a1.367 1.367 0 0 0 1.381-1.349v-9.5a.46.46 0 0 1 .921 0zM2.994 7.252a.455.455 0 0 0 .46.45c25.235 0 23.8.044 23.987-.094a.445.445 0 0 0 .174-.293c.026-.181.2.274-3.025-6.985a.461.461 0 0 0-.422-.271H3.454a.461.461 0 0 0-.422.271L.04 7.073C-.013 7.192 0 7 0 10.041a3.762 3.762 0 0 0 3.8 3.709 3.815 3.815 0 0 0 3.336-1.942 3.842 3.842 0 0 0 6.675 0 3.842 3.842 0 0 0 6.675 0 3.815 3.815 0 0 0 3.337 1.94 3.758 3.758 0 0 0 3.8-3.709.46.46 0 0 0-.921 0 2.878 2.878 0 0 1-5.754 0 .46.46 0 0 0-.921 0 2.878 2.878 0 0 1-5.754 0 .46.46 0 0 0-.921 0 2.878 2.878 0 0 1-5.752-.021.46.46 0 0 0-.921 0A2.85 2.85 0 0 1 3.8 12.85a2.851 2.851 0 0 1-2.877-2.81v-2.7L3.757.957h20.11L26.459 6.8h-23a.455.455 0 0 0-.46.45zm1.841 11.127A2.164 2.164 0 1 1 7 20.492a2.141 2.141 0 0 1-2.163-2.113zm.921 0A1.243 1.243 0 1 0 7 17.165a1.23 1.23 0 0 0-1.244 1.214zm5.217 2.113a.455.455 0 0 1-.46-.45v-3.326a.455.455 0 0 1 .46-.45h1.135a1.559 1.559 0 1 1 0 3.117h-.675v.659a.455.455 0 0 1-.46.45zm.46-2.008h.675a.66.66 0 1 0 0-1.319h-.675zm6.352-1.319a.45.45 0 1 0 0-.9h-2.271a.455.455 0 0 0-.46.45v3.327a.455.455 0 0 0 .46.45h2.271a.45.45 0 1 0 0-.9h-1.81v-.764h1.116a.45.45 0 1 0 0-.9h-1.116v-.764h1.811zm2.731 2.877V18.2l1.428 2.092a.463.463 0 0 0 .843-.249v-3.327a.46.46 0 0 0-.921 0v1.842l-1.428-2.092a.463.463 0 0 0-.843.249v3.327a.46.46 0 0 0 .921 0zM5.3 23.55h17.027a.45.45 0 1 0 0-.9H5.3a.45.45 0 1 0 0 .9z" data-name="online (1)" transform="translate(.499 .442)" style="fill:#707070;stroke:#707070"/>
</svg>
