<svg xmlns="http://www.w3.org/2000/svg" width="22.756" height="29.157" viewBox="0 0 22.756 29.157">
    <defs>
        <style>
            .prefix__cls-1,.prefix__cls-3{fill:#707070;stroke:#707070}.prefix__cls-3{stroke-width:.5px}
        </style>
    </defs>
    <g id="prefix__ticket" transform="translate(.5 .5)">
        <path id="prefix__패스_4" d="M105.2 24.826V9.817A1.931 1.931 0 0 0 103.178 8H90.024A1.931 1.931 0 0 0 88 9.817V34.34a1.931 1.931 0 0 0 2.024 1.817h13.154a1.931 1.931 0 0 0 2.022-1.817v-.477a4.759 4.759 0 0 0 4.554-4.519 4.759 4.759 0 0 0-4.554-4.518zM98.988 8.908l-.253.908h-4.269l-.253-.908zm5.2 25.432a.966.966 0 0 1-1.012.908H90.024a.966.966 0 0 1-1.012-.908V9.817a.966.966 0 0 1 1.012-.908h3.146l.41 1.473a.5.5 0 0 0 .491.344h5.059a.5.5 0 0 0 .491-.344l.41-1.473h3.146a.966.966 0 0 1 1.012.908v15.009a4.759 4.759 0 0 0-4.554 4.519 4.759 4.759 0 0 0 4.554 4.519zm.506-1.362a3.857 3.857 0 0 1-4.047-3.633 4.071 4.071 0 0 1 8.095 0 3.862 3.862 0 0 1-4.042 3.633z" class="prefix__cls-1" data-name="패스 4" transform="translate(-88 -8)"/>
        <path id="prefix__패스_5" d="M136.971 115.973l1.252-1.252a1.579 1.579 0 1 0-2.234-2.234l-1.252 1.252-2.957-1.592a.505.505 0 0 0-.6.087l-1.012 1.012a.507.507 0 0 0 .037.749l2.35 1.923-1.365 1.365-1.485-.606a.508.508 0 0 0-.549.111l-1.012 1.012a.506.506 0 0 0 .1.792l2.422 1.453 1.453 2.422a.506.506 0 0 0 .372.242.519.519 0 0 0 .062 0 .506.506 0 0 0 .358-.148l1.012-1.012a.509.509 0 0 0 .111-.55l-.606-1.484 1.365-1.365 1.923 2.35a.507.507 0 0 0 .749.037l1.012-1.012a.506.506 0 0 0 .087-.6zm.172 3.456l-1.923-2.35a.506.506 0 0 0-.749-.037l-2 2a.508.508 0 0 0-.111.549l.606 1.485-.316.316-1.185-1.974a.516.516 0 0 0-.173-.173l-1.974-1.185.316-.316 1.485.606a.508.508 0 0 0 .549-.111l2-2a.507.507 0 0 0-.037-.749l-2.35-1.923.35-.35 2.957 1.592a.506.506 0 0 0 .6-.087l1.518-1.518a.567.567 0 0 1 .8.8l-1.518 1.518a.506.506 0 0 0-.087.6l1.592 2.957z" data-name="패스 5" transform="translate(-125.47 -106.468)" style="stroke-width:.5px;stroke-linejoin:round;fill:#707070;stroke:#707070"/>
        <path id="prefix__패스_6" d="M324.361 352.109a.506.506 0 0 0-.711.079l-1.734 2.167-1.132-.755a.506.506 0 1 0-.561.842l1.518 1.012a.506.506 0 0 0 .676-.1l2.024-2.53a.506.506 0 0 0-.08-.715z" class="prefix__cls-1" data-name="패스 6" transform="translate(-305.325 -332.753)"/>
        <path id="prefix__패스_7" d="M141.565 296h-5.059a.506.506 0 1 0 0 1.012h5.059a.506.506 0 1 0 0-1.012z" class="prefix__cls-3" data-name="패스 7" transform="translate(-132.964 -278.632)"/>
        <path id="prefix__패스_8" d="M141.565 320h-5.059a.506.506 0 1 0 0 1.012h5.059a.506.506 0 1 0 0-1.012z" class="prefix__cls-3" data-name="패스 8" transform="translate(-132.964 -300.635)"/>
        <path id="prefix__패스_9" d="M138.53 344h-2.024a.506.506 0 1 0 0 1.012h2.024a.506.506 0 1 0 0-1.012z" class="prefix__cls-3" data-name="패스 9" transform="translate(-132.964 -322.639)"/>
        <path id="prefix__패스_10" d="M193.012 344h-.506a.506.506 0 0 0 0 1.012h.506a.506.506 0 1 0 0-1.012z" class="prefix__cls-3" data-name="패스 10" transform="translate(-184.784 -322.639)"/>
    </g>
</svg>
