<svg xmlns="http://www.w3.org/2000/svg" width="217.938" height="34.902" viewBox="0 0 217.938 34.902">
  <path id="패스_17" data-name="패스 17" d="M1.092-24.738v-5.628h22.3v5.628H15.456v26.8H9.114v-26.8Zm25.914,26.8V-14.028q0-3.864-.294-7.812h6.552v1.554q2.646-2.9,7.182-2.016l-1.092,5.964a4.924,4.924,0,0,0-4.116.021,3.87,3.87,0,0,0-1.974,3.129V2.058Zm21.21-6.846a2.051,2.051,0,0,0,.63,1.638,2.349,2.349,0,0,0,1.6.546,4.126,4.126,0,0,0,3.465-1.281A7.548,7.548,0,0,0,54.978-8.19Q48.216-8.022,48.216-4.788Zm-1.26-7.14a21.639,21.639,0,0,1,7.98-1.428q0-3.234-3.024-3.234a6.869,6.869,0,0,0-6.006,2.94l-3.822-3.528q3.276-5,9.87-5a9.679,9.679,0,0,1,6.678,2.2,8.125,8.125,0,0,1,2.478,6.4V-3.024a18.578,18.578,0,0,0,.714,5.46h-5.67l-.168-1.344a8.378,8.378,0,0,1-5.628,1.932,8.777,8.777,0,0,1-6.006-2.1A7.258,7.258,0,0,1,41.958-4.83Q41.958-9.66,46.956-11.928ZM77.07,2.436H71.4L65.016-16.086q-.252-.756-1.134-3.024t-1.008-2.6h7.35a41.95,41.95,0,0,0,1.092,5.04l2.9,11.046,2.94-11.046a44.986,44.986,0,0,0,1.092-5.04H85.6q-1.47,3.654-2.142,5.628ZM96.894-16.59a3.353,3.353,0,0,0-2.667,1.2A4.827,4.827,0,0,0,93.2-12.138h7.266Q100.464-16.59,96.894-16.59Zm10.122,9.828H93.072q.672,4.284,5.082,4.242a9.265,9.265,0,0,0,3.024-.651A6.809,6.809,0,0,0,103.866-5l2.478,4.032A11.448,11.448,0,0,1,102.4,1.911a11.391,11.391,0,0,1-4.83,1.155q-5.46,0-8.337-3.7a13.931,13.931,0,0,1-2.877-8.82,18.109,18.109,0,0,1,.588-4.683,13.468,13.468,0,0,1,1.806-4.032,8.619,8.619,0,0,1,3.3-2.9,10.453,10.453,0,0,1,4.851-1.071A10.153,10.153,0,0,1,102.06-20.9a8.161,8.161,0,0,1,3.255,3.423,15.725,15.725,0,0,1,1.512,4.83A27.589,27.589,0,0,1,107.016-6.762Zm3.99,2.856V-21.84q0-5.67-.294-8.946h6.552V-4.242q0,.63.021.882a1.245,1.245,0,0,0,.231.567.971.971,0,0,0,.672.4,7.723,7.723,0,0,0,1.3.084l.42,4.662a19.928,19.928,0,0,1-3.192.336Q111.006,2.688,111.006-3.906Zm29.652-1.05a7.288,7.288,0,0,1-2.541,5.985,10.179,10.179,0,0,1-6.657,2.079q-4.956,0-9.7-4.158L124.614-5.5q3.864,3.024,6.8,3.024,3.108,0,3.108-2.142a1.778,1.778,0,0,0-.756-1.407,4.955,4.955,0,0,0-1.617-.882q-.861-.273-2.163-.588t-1.722-.441a10.938,10.938,0,0,1-4.431-2.73,6.507,6.507,0,0,1-1.407-4.452,6.365,6.365,0,0,1,2.52-5.418,10.71,10.71,0,0,1,6.594-1.89,15.773,15.773,0,0,1,8.148,2.6l-1.932,4.872a12.174,12.174,0,0,0-5.88-1.89q-2.856-.084-2.982,1.512a1.58,1.58,0,0,0,.567,1.449,7.069,7.069,0,0,0,2.037.861q1.806.546,2.667.84a23.262,23.262,0,0,1,2.352,1.008,8.145,8.145,0,0,1,2.226,1.449,7.027,7.027,0,0,1,1.323,1.974A6.435,6.435,0,0,1,140.658-4.956Zm8.484.168a2.051,2.051,0,0,0,.63,1.638,2.349,2.349,0,0,0,1.6.546,4.126,4.126,0,0,0,3.465-1.281A7.548,7.548,0,0,0,155.9-8.19Q149.142-8.022,149.142-4.788Zm-1.26-7.14a21.639,21.639,0,0,1,7.98-1.428q0-3.234-3.024-3.234a6.869,6.869,0,0,0-6.006,2.94l-3.822-3.528q3.276-5,9.87-5a9.679,9.679,0,0,1,6.678,2.2,8.125,8.125,0,0,1,2.478,6.4V-3.024a18.578,18.578,0,0,0,.714,5.46h-5.67l-.168-1.344a8.378,8.378,0,0,1-5.628,1.932,8.777,8.777,0,0,1-6.006-2.1,7.258,7.258,0,0,1-2.394-5.754Q142.884-9.66,147.882-11.928Zm26.5-4.494V2.058h-6.258v-18.48H164.64V-22.05h3.486v-2.772q0-6.972,6.594-6.972a12.524,12.524,0,0,1,5.67,1.218l-.8,4.452a11.1,11.1,0,0,0-3.822-.672,1.446,1.446,0,0,0-1.029.336,1.863,1.863,0,0,0-.357,1.344v3.066h4.662v5.628Zm17.6-.168a3.353,3.353,0,0,0-2.667,1.2,4.827,4.827,0,0,0-1.029,3.255h7.266Q195.552-16.59,191.982-16.59ZM202.1-6.762H188.16q.672,4.284,5.082,4.242a9.265,9.265,0,0,0,3.024-.651A6.809,6.809,0,0,0,198.954-5l2.478,4.032a11.448,11.448,0,0,1-3.948,2.877,11.391,11.391,0,0,1-4.83,1.155q-5.46,0-8.337-3.7a13.931,13.931,0,0,1-2.877-8.82,18.109,18.109,0,0,1,.588-4.683,13.469,13.469,0,0,1,1.806-4.032,8.619,8.619,0,0,1,3.3-2.9,10.453,10.453,0,0,1,4.851-1.071,10.153,10.153,0,0,1,5.166,1.239,8.161,8.161,0,0,1,3.255,3.423,15.725,15.725,0,0,1,1.512,4.83A27.589,27.589,0,0,1,202.1-6.762Zm3.486,8.82V-14.028q0-3.864-.294-7.812h6.552v1.554q2.646-2.9,7.182-2.016l-1.092,5.964a4.924,4.924,0,0,0-4.116.021,3.87,3.87,0,0,0-1.974,3.129V2.058Z" transform="translate(-1.092 31.794)" fill="#2b90d9"/>
</svg>
